<svg width="512" height="512" viewBox="0 0 48 48" fill="none" xmlns="http://www.w3.org/2000/svg">
  <path d="M24 4C17.3726 4 12 9.37258 12 16C12 24 24 42 24 42C24 42 36 24 36 16C36 9.37258 30.6274 4 24 4Z" fill="url(#pinGradient)"/>
  
  <!-- Very curly winding route - dramatic S-curves -->
  <path 
    d="M2 46
       C6 44, 8 40, 8 36
       C8 32, 12 30, 16 32
       C20 34, 22 32, 24 28
       C26 24, 30 22, 34 20
       C38 18, 40 14, 42 10
       C44 6, 46 4, 48 2"
    stroke="#1db885" 
    stroke-width="3.5" 
    stroke-linecap="round" 
    stroke-linejoin="round" 
    fill="none"/>
  
  <circle cx="24" cy="16" r="5" fill="white"/>
  
  <defs>
    <linearGradient id="pinGradient" x1="24" y1="4" x2="24" y2="42" gradientUnits="userSpaceOnUse">
      <stop offset="0%" stop-color="#f97316"/>
      <stop offset="70%" stop-color="#ea580c"/>
      <stop offset="100%" stop-color="#dc2626"/>
    </linearGradient>
  </defs>
</svg>
